REM DIRINDEX 1\2,1\3,1\4,1\5
REM DIRNAME cjc005,folder01,folder02,folder03,folder04
TITLE ""
FILE "P1Q_t_1060-1069.mp3" MP3
  TRACK 01 AUDIO
    TITLE "3:cjc005_4086"
    INDEX 01 00:00:00
  TRACK 02 AUDIO
    TITLE "0:"
    INDEX 01 00:01:09
  TRACK 03 AUDIO
    TITLE "4:cjc005_4087"
    INDEX 01 00:01:38
  TRACK 04 AUDIO
    TITLE "0:"
    INDEX 01 00:02:61
  TRACK 05 AUDIO
    TITLE "5:cjc005_4088"
    INDEX 01 00:03:08
  TRACK 06 AUDIO
    TITLE "0:"
    INDEX 01 00:06:55
  TRACK 07 AUDIO
    TITLE "3:cjc005_4089"
    INDEX 01 00:07:35
  TRACK 08 AUDIO
    TITLE "0:"
    INDEX 01 00:08:52
  TRACK 09 AUDIO
    TITLE "4:cjc005_4090"
    INDEX 01 00:09:04
  TRACK 10 AUDIO
    TITLE "0:"
    INDEX 01 00:10:31
  TRACK 11 AUDIO
    TITLE "5:cjc005_4091"
    INDEX 01 00:10:59
  TRACK 12 AUDIO
    TITLE "0:"
    INDEX 01 00:14:19
  TRACK 13 AUDIO
    TITLE "3:cjc005_4092"
    INDEX 01 00:15:03
  TRACK 14 AUDIO
    TITLE "0:"
    INDEX 01 00:16:18
  TRACK 15 AUDIO
    TITLE "4:cjc005_4093"
    INDEX 01 00:16:44
  TRACK 16 AUDIO
    TITLE "0:"
    INDEX 01 00:18:01
  TRACK 17 AUDIO
    TITLE "5:cjc005_4094"
    INDEX 01 00:18:25
  TRACK 18 AUDIO
    TITLE "0:"
    INDEX 01 00:21:62
  TRACK 19 AUDIO
    TITLE "3:cjc005_4095"
    INDEX 01 00:22:42
  TRACK 20 AUDIO
    TITLE "0:"
    INDEX 01 00:23:40
  TRACK 21 AUDIO
    TITLE "4:cjc005_4096"
    INDEX 01 00:23:65
  TRACK 22 AUDIO
    TITLE "0:"
    INDEX 01 00:25:19
  TRACK 23 AUDIO
    TITLE "5:cjc005_4097"
    INDEX 01 00:25:43
  TRACK 24 AUDIO
    TITLE "0:"
    INDEX 01 00:29:13
  TRACK 25 AUDIO
    TITLE "3:cjc005_4098"
    INDEX 01 00:29:72
  TRACK 26 AUDIO
    TITLE "0:"
    INDEX 01 00:31:06
  TRACK 27 AUDIO
    TITLE "4:cjc005_4099"
    INDEX 01 00:31:35
  TRACK 28 AUDIO
    TITLE "0:"
    INDEX 01 00:32:70
  TRACK 29 AUDIO
    TITLE "5:cjc005_4100"
    INDEX 01 00:33:19
  TRACK 30 AUDIO
    TITLE "0:"
    INDEX 01 00:37:16
  TRACK 31 AUDIO
    TITLE "3:cjc005_4101"
    INDEX 01 00:37:73
  TRACK 32 AUDIO
    TITLE "0:"
    INDEX 01 00:39:17
  TRACK 33 AUDIO
    TITLE "4:cjc005_4102"
    INDEX 01 00:39:39
  TRACK 34 AUDIO
    TITLE "0:"
    INDEX 01 00:41:04
  TRACK 35 AUDIO
    TITLE "5:cjc005_4103"
    INDEX 01 00:41:30
  TRACK 36 AUDIO
    TITLE "0:"
    INDEX 01 00:45:30
  TRACK 37 AUDIO
    TITLE "3:cjc005_4104"
    INDEX 01 00:46:07
  TRACK 38 AUDIO
    TITLE "0:"
    INDEX 01 00:47:19
  TRACK 39 AUDIO
    TITLE "4:cjc005_4105"
    INDEX 01 00:47:48
  TRACK 40 AUDIO
    TITLE "0:"
    INDEX 01 00:48:69
  TRACK 41 AUDIO
    TITLE "5:cjc005_4106"
    INDEX 01 00:49:20
  TRACK 42 AUDIO
    TITLE "0:"
    INDEX 01 00:54:29
  TRACK 43 AUDIO
    TITLE "3:cjc005_4107"
    INDEX 01 00:55:04
  TRACK 44 AUDIO
    TITLE "0:"
    INDEX 01 00:56:10
  TRACK 45 AUDIO
    TITLE "4:cjc005_4108"
    INDEX 01 00:56:35
  TRACK 46 AUDIO
    TITLE "0:"
    INDEX 01 00:57:66
  TRACK 47 AUDIO
    TITLE "5:cjc005_4109"
    INDEX 01 00:58:15
  TRACK 48 AUDIO
    TITLE "0:"
    INDEX 01 01:02:12
  TRACK 49 AUDIO
    TITLE "3:cjc005_4110"
    INDEX 01 01:02:57
  TRACK 50 AUDIO
    TITLE "0:"
    INDEX 01 01:03:49
  TRACK 51 AUDIO
    TITLE "4:cjc005_4111"
    INDEX 01 01:04:01
  TRACK 52 AUDIO
    TITLE "0:"
    INDEX 01 01:05:07
  TRACK 53 AUDIO
    TITLE "5:cjc005_4112"
    INDEX 01 01:05:26
  TRACK 54 AUDIO
    TITLE "0:"
    INDEX 01 01:08:13
  TRACK 55 AUDIO
    TITLE "3:cjc005_4113"
    INDEX 01 01:08:66
  TRACK 56 AUDIO
    TITLE "0:"
    INDEX 01 01:10:10
  TRACK 57 AUDIO
    TITLE "4:cjc005_4114"
    INDEX 01 01:10:35
  TRACK 58 AUDIO
    TITLE "0:"
    INDEX 01 01:11:54
  TRACK 59 AUDIO
    TITLE "5:cjc005_4115"
    INDEX 01 01:12:03
  TRACK 60 AUDIO
    TITLE "0:"
    INDEX 01 01:16:11
